<svg width="202" height="28" viewBox="0 0 202 28" fill="none" xmlns="http://www.w3.org/2000/svg">
<path d="M7.27847 27.2334C5.78934 27.2334 4.55581 26.9667 3.57788 26.4332C2.59994 25.8776 1.8776 25.1664 1.41086 24.2996C0.944118 23.4105 0.710747 22.4548 0.710747 21.4324C0.710747 20.5212 0.888553 19.621 1.24417 18.732C1.59978 17.843 2.12209 17.0317 2.81109 16.2983C3.52231 15.5648 4.378 14.987 5.37817 14.5647C4.46691 13.9868 3.77791 13.2978 3.31117 12.4977C2.86665 11.6753 2.64439 10.8196 2.64439 9.93058C2.64439 8.77484 3.02223 7.65244 3.77791 6.56337C4.53359 5.47431 5.63376 4.57416 7.07844 3.86294C8.52312 3.15171 10.2567 2.7961 12.2793 2.7961C13.6795 2.7961 14.7908 2.9739 15.6131 3.32952C16.4577 3.6629 17.0689 4.10742 17.4468 4.66307C17.8246 5.19648 18.0135 5.77436 18.0135 6.39668C18.0135 7.1079 17.7913 7.81913 17.3468 8.53036C16.9022 9.21936 16.2577 9.78611 15.4131 10.2306C14.5908 10.6751 13.5795 10.8974 12.3793 10.8974C12.7349 9.85279 12.9127 8.98598 12.9127 8.29698C12.9127 7.60798 12.7682 7.1079 12.4793 6.79674C12.1904 6.48558 11.8348 6.33 11.4125 6.33C10.968 6.33 10.4901 6.49669 9.97891 6.83008C9.48994 7.16347 9.07876 7.63021 8.74538 8.23031C8.41199 8.8304 8.24529 9.53052 8.24529 10.3306C8.24529 10.7529 8.31197 11.2308 8.44533 11.7642C8.57868 12.2754 8.78983 12.7866 9.07876 13.2978C9.56773 12.9866 10.0122 12.7644 10.4123 12.631C10.8346 12.4754 11.2124 12.3976 11.5458 12.3976C12.2348 12.3976 12.7349 12.6421 13.0461 13.1311C13.3572 13.5978 13.5128 14.1313 13.5128 14.7314C13.5128 15.4426 13.2906 16.1205 12.846 16.765C12.4237 17.4096 11.7903 17.7318 10.9457 17.7318C10.1678 17.7318 9.25657 17.3651 8.21196 16.6317C6.98954 17.4985 6.37833 18.5209 6.37833 19.6988C6.37833 20.6101 6.65615 21.2991 7.21179 21.7658C7.78967 22.2326 8.52312 22.4659 9.41215 22.4659C10.5457 22.4659 11.8125 22.077 13.2128 21.2991C14.613 20.499 15.8576 19.3099 16.9467 17.7318L17.2134 17.8985C17.169 19.4543 16.8467 20.8212 16.2466 21.9992C15.6687 23.1549 14.9019 24.1218 13.9462 24.8997C13.0127 25.6776 11.9681 26.2665 10.8124 26.6666C9.65663 27.0445 8.47867 27.2334 7.27847 27.2334ZM20.9588 27.1334C20.2698 27.1334 19.6586 26.9667 19.1252 26.6333C18.5918 26.2999 18.325 25.7442 18.325 24.9663C18.325 23.7439 18.5806 22.4993 19.0918 21.2324C19.6253 19.9655 20.2698 18.7209 21.0255 17.4985C21.8034 16.2538 22.5702 15.0425 23.3259 13.8645C24.1038 12.6866 24.7483 11.5642 25.2595 10.4973C25.7929 9.4305 26.0596 8.44145 26.0596 7.53019C26.0596 6.79674 25.8818 6.43002 25.5262 6.43002C25.2817 6.43002 25.0039 6.63005 24.6927 7.03011C24.3816 7.40795 24.1593 7.97471 24.026 8.73039L23.6592 8.66371C23.6592 7.39684 23.9593 6.33 24.5594 5.46319C25.1595 4.57416 25.9263 3.90739 26.8598 3.46287C27.7932 3.01836 28.7489 2.7961 29.7269 2.7961C30.8604 2.7961 31.9161 3.11837 32.8941 3.76292C33.8942 4.40747 34.5832 5.42986 34.9611 6.83008C35.1166 7.38573 35.2278 8.00805 35.2944 8.69705C35.3834 9.38605 35.4389 9.98615 35.4611 10.4973C35.4834 10.9863 35.4945 11.2308 35.4945 11.2308C35.5389 13.0311 35.5723 14.5535 35.5945 15.7982C35.6389 17.0428 35.7056 18.0875 35.7945 18.932C35.8834 19.7766 36.0057 20.4878 36.1613 21.0657C36.3168 21.6214 36.5169 22.077 36.7614 22.4326C37.0281 22.766 37.3614 22.9327 37.7615 22.9327C38.1394 22.9327 38.4616 22.8215 38.7283 22.5993C39.0173 22.377 39.2062 22.1659 39.2951 21.9659L39.5285 22.1325C39.5285 23.1549 39.3284 24.044 38.9284 24.7996C38.5283 25.5553 38.006 26.1332 37.3614 26.5333C36.7169 26.9333 36.039 27.1334 35.3278 27.1334C34.6388 27.1334 33.9609 26.9333 33.2941 26.5333C32.6496 26.111 32.0828 25.4664 31.5939 24.5996C31.1049 23.7328 30.7826 22.6104 30.627 21.2324C29.938 21.188 29.2601 21.1546 28.5934 21.1324C27.9488 21.0879 27.3598 21.0657 26.8264 21.0657C26.4708 21.0657 26.1263 21.0768 25.7929 21.099C25.4818 21.099 25.1706 21.1102 24.8594 21.1324C24.6594 21.8214 24.4927 22.5215 24.3594 23.2327C24.2482 23.9217 24.1927 24.5996 24.1927 25.2664C24.1927 25.7776 23.8593 26.2221 23.1925 26.5999C22.5257 26.9555 21.7812 27.1334 20.9588 27.1334ZM25.9596 18.0319C26.5153 17.8763 27.1042 17.7763 27.7266 17.7318C28.3489 17.6652 29.0157 17.6318 29.7269 17.6318H30.4603C30.4159 15.9871 30.3492 14.298 30.2603 12.5643C30.1936 10.8307 29.9158 9.21936 29.4268 7.73023C29.249 9.33048 28.8045 11.0085 28.0933 12.7644C27.3821 14.5202 26.6708 16.276 25.9596 18.0319ZM43.2931 27.1334C42.6041 27.1334 41.9929 26.9667 41.4595 26.6333C40.9261 26.2999 40.6594 25.7442 40.6594 24.9663C40.6594 23.7439 40.915 22.4993 41.4262 21.2324C41.9596 19.9655 42.6041 18.7209 43.3598 17.4985C44.1377 16.2538 44.9045 15.0425 45.6602 13.8645C46.4381 12.6866 47.0826 11.5642 47.5938 10.4973C48.1272 9.4305 48.394 8.44145 48.394 7.53019C48.394 6.79674 48.2162 6.43002 47.8605 6.43002C47.6161 6.43002 47.3382 6.63005 47.0271 7.03011C46.7159 7.40795 46.4937 7.97471 46.3603 8.73039L45.9936 8.66371C45.9936 7.39684 46.2936 6.33 46.8937 5.46319C47.4938 4.57416 48.2606 3.90739 49.1941 3.46287C50.1276 3.01836 51.0833 2.7961 52.0612 2.7961C53.1947 2.7961 54.2505 3.11837 55.2284 3.76292C56.2286 4.40747 56.9176 5.42986 57.2954 6.83008C57.451 7.38573 57.5621 8.00805 57.6288 8.69705C57.7177 9.38605 57.7732 9.98615 57.7955 10.4973C57.8177 10.9863 57.8288 11.2308 57.8288 11.2308C57.8733 13.0311 57.9066 14.5535 57.9288 15.7982C57.9733 17.0428 58.04 18.0875 58.1289 18.932C58.2178 19.7766 58.34 20.4878 58.4956 21.0657C58.6512 21.6214 58.8512 22.077 59.0957 22.4326C59.3624 22.766 59.6958 22.9327 60.0958 22.9327C60.4737 22.9327 60.796 22.8215 61.0627 22.5993C61.3516 22.377 61.5405 22.1659 61.6294 21.9659L61.8628 22.1325C61.8628 23.1549 61.6628 24.044 61.2627 24.7996C60.8626 25.5553 60.3403 26.1332 59.6958 26.5333C59.0512 26.9333 58.3733 27.1334 57.6621 27.1334C56.9731 27.1334 56.2952 26.9333 55.6285 26.5333C54.9839 26.111 54.4172 25.4664 53.9282 24.5996C53.4392 23.7328 53.1169 22.6104 52.9614 21.2324C52.2724 21.188 51.5945 21.1546 50.9277 21.1324C50.2832 21.0879 49.6942 21.0657 49.1607 21.0657C48.8051 21.0657 48.4606 21.0768 48.1272 21.099C47.8161 21.099 47.5049 21.1102 47.1938 21.1324C46.9937 21.8214 46.827 22.5215 46.6937 23.2327C46.5826 23.9217 46.527 24.5996 46.527 25.2664C46.527 25.7776 46.1936 26.2221 45.5268 26.5999C44.8601 26.9555 44.1155 27.1334 43.2931 27.1334ZM48.2939 18.0319C48.8496 17.8763 49.4386 17.7763 50.0609 17.7318C50.6832 17.6652 51.35 17.6318 52.0612 17.6318H52.7947C52.7502 15.9871 52.6835 14.298 52.5946 12.5643C52.528 10.8307 52.2501 9.21936 51.7612 7.73023C51.5834 9.33048 51.1388 11.0085 50.4276 12.7644C49.7164 14.5202 49.0052 16.276 48.2939 18.0319ZM78.5605 27.2334C77.7604 27.2334 76.8491 27.0889 75.8268 26.8C74.8266 26.511 73.7709 26.1999 72.6596 25.8665C71.5705 25.5109 70.4815 25.2553 69.3924 25.0997C68.6367 25.8109 67.9255 26.3221 67.2587 26.6333C66.6142 26.9222 66.0363 27.0667 65.5251 27.0667C64.8806 27.0667 64.336 26.8778 63.8915 26.4999C63.447 26.1221 63.1136 25.6442 62.8913 25.0664C62.6691 24.4663 62.558 23.855 62.558 23.2327C62.558 22.5882 62.6691 21.977 62.8913 21.3991C63.1358 20.8212 63.5026 20.3545 63.9915 19.9989C64.4805 19.621 65.1028 19.4321 65.8585 19.4321C66.0141 19.4321 66.1808 19.4432 66.3586 19.4655C66.5364 19.4877 66.7253 19.521 66.9253 19.5655C67.3476 18.2764 67.7143 16.8539 68.0255 15.2981C68.3589 13.7201 68.6145 12.1754 68.7923 10.664C68.9923 9.15268 69.0923 7.84136 69.0923 6.73006C69.0923 6.28555 69.0701 5.97439 69.0257 5.79658C68.9812 5.59655 68.9034 5.39652 68.7923 5.19648L68.759 5.09647C69.0257 4.38524 69.4702 3.8296 70.0925 3.42953C70.7148 3.02947 71.3705 2.82944 72.0595 2.82944C72.8152 2.82944 73.4375 3.10726 73.9265 3.6629C74.4154 4.19632 74.6599 5.09647 74.6599 6.36334C74.6599 7.16347 74.5599 8.16363 74.3599 9.36382C74.1821 10.5418 73.9265 11.8198 73.5931 13.1978C73.2597 14.5535 72.893 15.8982 72.4929 17.2318C72.0928 18.5653 71.6928 19.7544 71.2927 20.799C72.2706 21.0213 73.2486 21.2769 74.2265 21.5658C75.2267 21.8547 76.2046 21.9992 77.1603 21.9992C77.8938 21.9992 78.5939 21.8658 79.2606 21.5991C79.9496 21.3324 80.5942 20.8435 81.1943 20.1322C81.6388 20.4212 81.9611 20.8323 82.1611 21.3658C82.3834 21.8992 82.4945 22.4659 82.4945 23.066C82.4945 23.7328 82.35 24.3885 82.0611 25.033C81.7944 25.6553 81.3721 26.1776 80.7942 26.5999C80.2164 27.0222 79.4718 27.2334 78.5605 27.2334ZM86.796 27.1667C86.1737 27.1667 85.618 26.9111 85.129 26.3999C84.6623 25.8665 84.4289 24.8885 84.4289 23.4661C84.4289 23.2216 84.4289 23.0105 84.4289 22.8327C84.4512 22.6326 84.4623 22.4882 84.4623 22.3993C84.5512 21.5102 84.6734 20.41 84.829 19.0987C85.0068 17.7652 85.2068 16.3761 85.4291 14.9314C85.6514 13.4645 85.8736 12.0531 86.0959 10.6974C86.3404 9.3416 86.5626 8.16363 86.7626 7.16347C86.9627 6.14108 87.1294 5.44097 87.2627 5.06313C87.5072 4.39636 87.9406 3.87405 88.5629 3.49621C89.2075 3.09615 89.8631 2.89611 90.5299 2.89611C91.1078 2.89611 91.6301 3.06281 92.0968 3.3962C92.5858 3.72958 92.9192 4.29634 93.097 5.09647C92.9636 5.54099 92.7525 6.33 92.4636 7.46352C92.1746 8.57481 91.8635 9.94169 91.5301 11.5642C91.1967 13.1867 90.8744 14.9758 90.5633 16.9317C90.2743 18.8876 90.0409 20.9324 89.8631 23.066C89.8409 23.4439 89.8076 23.8884 89.7631 24.3996C89.7187 24.8885 89.6853 25.3886 89.6631 25.8998C89.3964 26.1888 88.9963 26.4777 88.4629 26.7666C87.9295 27.0333 87.3739 27.1667 86.796 27.1667ZM120.378 27C119.667 27 118.978 26.8 118.311 26.3999C117.667 25.9998 117.145 25.3664 116.745 24.4996C116.344 23.6328 116.144 22.5215 116.144 21.1657C116.144 20.0544 116.278 18.8098 116.545 17.4318C116.811 16.0316 117.156 14.6313 117.578 13.2311C118.023 11.8309 118.5 10.564 119.012 9.4305C117.478 10.4529 116.133 11.8642 114.978 13.6645C113.822 15.4648 112.822 17.554 111.977 19.9322C112.155 20.6434 112.299 21.3102 112.411 21.9325C112.522 22.5548 112.577 23.1216 112.577 23.6328C112.577 24.6107 112.344 25.3775 111.877 25.9332C111.41 26.4888 110.599 26.7666 109.443 26.7666C108.421 26.7666 107.665 26.5444 107.176 26.0999C106.71 25.6331 106.476 24.9886 106.476 24.1662C106.476 23.6328 106.565 23.0216 106.743 22.3326C106.943 21.6436 107.221 20.899 107.576 20.0989C107.176 18.9209 106.687 17.5985 106.11 16.1316C105.532 14.6425 104.72 13.02 103.676 11.2641C103.365 12.5755 103.042 13.8868 102.709 15.1981C102.398 16.4872 102.131 17.6874 101.909 18.7987C101.709 19.8877 101.609 20.8101 101.609 21.5658C101.609 22.7882 101.942 23.3994 102.609 23.3994L102.676 23.4661C102.676 24.1995 102.487 24.833 102.109 25.3664C101.753 25.8776 101.287 26.2777 100.709 26.5666C100.153 26.8333 99.564 26.9667 98.9417 26.9667C98.3416 26.9667 97.7526 26.8222 97.1747 26.5333C96.6191 26.2443 96.1635 25.7998 95.8078 25.1997C95.4522 24.5774 95.2744 23.7884 95.2744 22.8327C95.2744 21.9214 95.43 20.9324 95.7412 19.8655C96.0746 18.7765 96.4857 17.6763 96.9747 16.565C97.4637 15.4315 97.9638 14.3313 98.4749 13.2645C98.9861 12.1754 99.4418 11.1641 99.8418 10.2306C100.264 9.27492 100.542 8.44145 100.675 7.73023C100.231 7.41907 99.7529 7.26349 99.2417 7.26349C98.8194 7.26349 98.386 7.40795 97.9415 7.69689C97.5192 7.9636 97.1192 8.41923 96.7413 9.06377L96.508 8.96376C96.5302 7.83024 96.7747 6.79674 97.2414 5.86326C97.7082 4.90755 98.3194 4.15187 99.075 3.59623C99.8529 3.01836 100.698 2.72942 101.609 2.72942C102.653 2.72942 103.731 3.18505 104.843 4.09631C105.954 5.00757 106.976 6.50781 107.91 8.59703C108.866 10.6863 109.632 13.5089 110.21 17.0651C111.055 14.3313 111.966 12.042 112.944 10.1973C113.922 8.35255 114.922 6.88565 115.944 5.79658C116.989 4.70752 118.011 3.92961 119.012 3.46287C120.034 2.9739 121.001 2.72942 121.912 2.72942C123.046 2.72942 124.057 3.00724 124.946 3.56289C125.857 4.11853 126.568 4.81865 127.08 5.66323C127.613 6.50781 127.88 7.35239 127.88 8.19697C127.324 8.04139 126.768 7.93026 126.213 7.86358C125.679 7.7969 125.157 7.76357 124.646 7.76357C124.135 7.76357 123.646 7.7969 123.179 7.86358C122.979 8.88597 122.768 10.0306 122.545 11.2975C122.323 12.5421 122.123 13.7979 121.945 15.0647C121.79 16.3316 121.712 17.4985 121.712 18.5653C121.712 19.6544 121.823 20.5434 122.045 21.2324C122.268 21.9214 122.657 22.2659 123.212 22.2659C123.568 22.2659 123.923 22.1103 124.279 21.7992C124.657 21.488 124.935 21.0101 125.113 20.3656L125.346 20.4656C125.346 21.9325 125.101 23.1549 124.612 24.1329C124.124 25.0886 123.49 25.8109 122.712 26.2999C121.957 26.7666 121.179 27 120.378 27ZM134.317 27.2334C132.828 27.2334 131.595 26.9667 130.617 26.4332C129.639 25.8776 128.916 25.1664 128.45 24.2996C127.983 23.4105 127.749 22.4548 127.749 21.4324C127.749 20.5212 127.927 19.621 128.283 18.732C128.638 17.843 129.161 17.0317 129.85 16.2983C130.561 15.5648 131.417 14.987 132.417 14.5647C131.506 13.9868 130.817 13.2978 130.35 12.4977C129.905 11.6753 129.683 10.8196 129.683 9.93058C129.683 8.77484 130.061 7.65244 130.817 6.56337C131.572 5.47431 132.672 4.57416 134.117 3.86294C135.562 3.15171 137.295 2.7961 139.318 2.7961C140.718 2.7961 141.829 2.9739 142.652 3.32952C143.496 3.6629 144.108 4.10742 144.485 4.66307C144.863 5.19648 145.052 5.77436 145.052 6.39668C145.052 7.1079 144.83 7.81913 144.385 8.53036C143.941 9.21936 143.296 9.78611 142.452 10.2306C141.629 10.6751 140.618 10.8974 139.418 10.8974C139.774 9.85279 139.951 8.98598 139.951 8.29698C139.951 7.60798 139.807 7.1079 139.518 6.79674C139.229 6.48558 138.873 6.33 138.451 6.33C138.007 6.33 137.529 6.49669 137.018 6.83008C136.529 7.16347 136.117 7.63021 135.784 8.23031C135.451 8.8304 135.284 9.53052 135.284 10.3306C135.284 10.7529 135.351 11.2308 135.484 11.7642C135.617 12.2754 135.829 12.7866 136.117 13.2978C136.606 12.9866 137.051 12.7644 137.451 12.631C137.873 12.4754 138.251 12.3976 138.585 12.3976C139.274 12.3976 139.774 12.6421 140.085 13.1311C140.396 13.5978 140.552 14.1313 140.552 14.7314C140.552 15.4426 140.329 16.1205 139.885 16.765C139.462 17.4096 138.829 17.7318 137.984 17.7318C137.207 17.7318 136.295 17.3651 135.251 16.6317C134.028 17.4985 133.417 18.5209 133.417 19.6988C133.417 20.6101 133.695 21.2991 134.25 21.7658C134.828 22.2326 135.562 22.4659 136.451 22.4659C137.584 22.4659 138.851 22.077 140.251 21.2991C141.652 20.499 142.896 19.3099 143.985 17.7318L144.252 17.8985C144.208 19.4543 143.885 20.8212 143.285 21.9992C142.707 23.1549 141.941 24.1218 140.985 24.8997C140.051 25.6776 139.007 26.2665 137.851 26.6666C136.695 27.0445 135.517 27.2334 134.317 27.2334ZM152.517 27.2334C151.028 27.2334 149.794 26.9667 148.816 26.4332C147.838 25.8776 147.116 25.1664 146.649 24.2996C146.182 23.4105 145.949 22.4548 145.949 21.4324C145.949 20.5212 146.127 19.621 146.482 18.732C146.838 17.843 147.36 17.0317 148.049 16.2983C148.761 15.5648 149.616 14.987 150.616 14.5647C149.705 13.9868 149.016 13.2978 148.549 12.4977C148.105 11.6753 147.883 10.8196 147.883 9.93058C147.883 8.77484 148.26 7.65244 149.016 6.56337C149.772 5.47431 150.872 4.57416 152.317 3.86294C153.761 3.15171 155.495 2.7961 157.518 2.7961C158.918 2.7961 160.029 2.9739 160.851 3.32952C161.696 3.6629 162.307 4.10742 162.685 4.66307C163.063 5.19648 163.252 5.77436 163.252 6.39668C163.252 7.1079 163.03 7.81913 162.585 8.53036C162.14 9.21936 161.496 9.78611 160.651 10.2306C159.829 10.6751 158.818 10.8974 157.618 10.8974C157.973 9.85279 158.151 8.98598 158.151 8.29698C158.151 7.60798 158.006 7.1079 157.718 6.79674C157.429 6.48558 157.073 6.33 156.651 6.33C156.206 6.33 155.728 6.49669 155.217 6.83008C154.728 7.16347 154.317 7.63021 153.984 8.23031C153.65 8.8304 153.484 9.53052 153.484 10.3306C153.484 10.7529 153.55 11.2308 153.684 11.7642C153.817 12.2754 154.028 12.7866 154.317 13.2978C154.806 12.9866 155.25 12.7644 155.651 12.631C156.073 12.4754 156.451 12.3976 156.784 12.3976C157.473 12.3976 157.973 12.6421 158.284 13.1311C158.595 13.5978 158.751 14.1313 158.751 14.7314C158.751 15.4426 158.529 16.1205 158.084 16.765C157.662 17.4096 157.029 17.7318 156.184 17.7318C155.406 17.7318 154.495 17.3651 153.45 16.6317C152.228 17.4985 151.617 18.5209 151.617 19.6988C151.617 20.6101 151.894 21.2991 152.45 21.7658C153.028 22.2326 153.761 22.4659 154.65 22.4659C155.784 22.4659 157.051 22.077 158.451 21.2991C159.851 20.499 161.096 19.3099 162.185 17.7318L162.452 17.8985C162.407 19.4543 162.085 20.8212 161.485 21.9992C160.907 23.1549 160.14 24.1218 159.184 24.8997C158.251 25.6776 157.206 26.2665 156.051 26.6666C154.895 27.0445 153.717 27.2334 152.517 27.2334ZM171.857 27.1334C171.168 27.1334 170.557 26.9555 170.023 26.5999C169.512 26.2443 169.268 25.7109 169.29 24.9997C169.334 23.755 169.423 22.377 169.556 20.8657C169.712 19.3543 169.89 17.8207 170.09 16.2649C170.29 14.6869 170.49 13.1755 170.69 11.7309C170.912 10.2862 171.112 8.9971 171.29 7.86358C170.89 7.81913 170.501 7.78579 170.123 7.76357C169.745 7.74134 169.401 7.73023 169.09 7.73023C168.156 7.73023 167.312 7.81913 166.556 7.99694C165.823 8.17474 165.2 8.4859 164.689 8.93042C164.689 7.53019 164.8 6.39668 165.022 5.52987C165.267 4.64084 165.7 3.99629 166.323 3.59623C166.967 3.19616 167.901 2.99613 169.123 2.99613C170.012 2.99613 171.001 3.07392 172.09 3.2295C173.201 3.36286 174.324 3.50732 175.457 3.6629C176.591 3.81848 177.647 3.89628 178.625 3.89628C179.425 3.89628 180.136 3.81848 180.758 3.6629C181.403 3.50732 181.892 3.2295 182.225 2.82944C182.714 2.98502 183.092 3.32952 183.359 3.86294C183.625 4.37413 183.759 4.94089 183.759 5.56321C183.759 6.11886 183.637 6.66339 183.392 7.19681C183.148 7.708 182.759 8.1414 182.225 8.49702C181.692 8.8304 180.969 8.9971 180.058 8.9971C179.636 8.9971 179.114 8.96376 178.491 8.89708C177.891 8.80818 177.247 8.71927 176.558 8.63037C176.313 9.96392 176.058 11.5642 175.791 13.4311C175.546 15.2759 175.335 17.2651 175.157 19.3988C175.002 21.5325 174.902 23.6995 174.857 25.8998C174.457 26.3221 173.979 26.6333 173.424 26.8333C172.89 27.0333 172.368 27.1334 171.857 27.1334ZM194.611 19.3988C194.122 19.3988 193.677 19.3099 193.277 19.1321C192.899 18.932 192.677 18.6098 192.61 18.1652C192.655 17.1873 192.744 16.076 192.877 14.8314C193.033 13.5645 193.211 12.2754 193.411 10.9641C193.611 9.65276 193.811 8.397 194.011 7.19681C194.211 5.99661 194.388 4.952 194.544 4.06297C194.7 3.15171 194.811 2.49605 194.877 2.09598C194.944 1.74037 195.244 1.44032 195.778 1.19584C196.311 0.951356 196.922 0.829114 197.611 0.829114C198.367 0.829114 199.1 1.01803 199.812 1.39587C200.545 1.77371 201.056 2.44048 201.345 3.3962C201.034 3.88516 200.645 4.66307 200.178 5.7299C199.712 6.79674 199.245 8.04139 198.778 9.46384C198.311 10.8641 197.911 12.3643 197.578 13.9646C197.245 15.5426 197.044 17.1206 196.978 18.6987C196.733 18.8987 196.389 19.0654 195.944 19.1987C195.5 19.3321 195.055 19.3988 194.611 19.3988ZM194.111 27.2C193.177 27.2 192.41 26.9111 191.81 26.3332C191.21 25.7554 190.91 25.033 190.91 24.1662C190.91 23.2327 191.255 22.4326 191.944 21.7658C192.655 21.0768 193.511 20.7323 194.511 20.7323C195.444 20.7323 196.211 21.0324 196.811 21.6325C197.433 22.2103 197.745 22.9327 197.745 23.7995C197.745 24.733 197.389 25.5331 196.678 26.1999C195.967 26.8666 195.111 27.2 194.111 27.2Z" fill="#FF2323" fill-opacity="0.75"/>
</svg>
